<?xml version="1.0" encoding="UTF-8" standalone="no"?>
<svg
   version="1.1"
   id="Layer_1"
   x="0px"
   y="0px"
   width="100%"
   viewBox="0 0 835 835"
   enable-background="new 0 0 835 835"
   xml:space="preserve"
   sodipodi:docname="Logo_cl@ve.svg-2.svg"
   inkscape:version="1.3.1 (91b66b0, 2023-11-16)"
   xmlns:inkscape="http://www.inkscape.org/namespaces/inkscape"
   xmlns:sodipodi="http://sodipodi.sourceforge.net/DTD/sodipodi-0.dtd"
   xmlns="http://www.w3.org/2000/svg"
   xmlns:svg="http://www.w3.org/2000/svg"><defs
   id="defs8" /><sodipodi:namedview
   id="namedview8"
   pagecolor="#ffffff"
   bordercolor="#000000"
   borderopacity="0.25"
   inkscape:showpageshadow="2"
   inkscape:pageopacity="0.0"
   inkscape:pagecheckerboard="0"
   inkscape:deskcolor="#d1d1d1"
   inkscape:zoom="0.93053892"
   inkscape:cx="417.5"
   inkscape:cy="417.5"
   inkscape:window-width="1392"
   inkscape:window-height="1212"
   inkscape:window-x="0"
   inkscape:window-y="25"
   inkscape:window-maximized="0"
   inkscape:current-layer="Layer_1" />

<path
   fill="#FF5A00"
   opacity="1.000000"
   stroke="none"
   d=" M836.000000,418.531342   C814.865356,419.000000 793.730652,419.000000 771.901611,419.000000   C770.109253,315.091187 732.230225,226.681870 655.732544,156.795105   C582.634583,90.014221 494.929016,59.445793 396.169495,65.383720   C303.507294,70.955048 224.109634,108.467194 160.680435,176.277054   C92.296432,249.383911 60.020027,337.213165 65.315475,437.261444   C70.257004,530.623291 107.483101,610.345276 175.457581,674.693481   C243.374634,738.987366 325.085480,770.378906 418.999939,772.002991   C418.999939,793.207214 418.999939,814.134949 418.999969,835.531372   C407.979095,836.000000 396.958221,836.000000 385.698425,835.606384   C384.778351,834.818726 384.133423,834.171387 383.410614,834.067871   C366.759827,831.682129 350.011688,829.855713 333.461243,826.914429   C298.511444,820.703369 265.195099,809.071655 233.688736,792.969421   C214.742538,783.286438 196.418518,772.100891 178.868958,760.054993   C163.106766,749.235901 148.168854,736.996277 134.010056,724.126160   C121.298355,712.571472 109.665123,699.716309 98.441719,686.672791   C88.657684,675.302124 79.666428,663.175171 71.114616,650.835083   C56.975601,630.432739 44.931736,608.724060 35.537167,585.758850   C28.294685,568.054382 21.675140,550.009033 16.194929,531.691528   C9.370094,508.879608 4.554190,485.530914 2.898035,461.654510   C2.856936,461.061951 1.658604,460.549713 0.999998,460.000000   C1.000000,432.312439 1.000000,404.624878 1.392871,376.688416   C2.180938,375.759491 2.822722,375.117676 2.934759,374.393860   C4.981232,361.172211 6.684615,347.891266 9.015139,334.721039   C15.005243,300.869720 26.583178,268.790131 41.135590,237.795074   C51.127728,216.512894 62.677010,196.008636 77.028008,177.311707   C88.792114,161.985062 100.828018,146.825668 113.513405,132.262848   C121.329239,123.290283 130.194870,115.109268 139.295715,107.407822   C152.907852,95.888786 166.724197,84.521759 181.208145,74.142929   C203.642044,58.067333 227.654404,44.470024 253.389938,34.401577   C272.430725,26.952288 291.728882,19.940744 311.356354,14.271327   C332.027130,8.300552 353.272888,4.440100 374.844543,2.913812   C375.604370,2.860053 376.283356,1.663779 377.000000,1.000001   C404.020905,1.000000 431.041779,1.000000 458.291260,1.386017   C459.199493,2.170937 459.840302,2.819204 460.564484,2.932032   C475.873871,5.317170 491.285645,7.157931 506.489960,10.080316   C537.266479,15.995782 566.739746,26.213160 594.977295,39.669090   C609.665100,46.668240 623.852234,54.803276 637.888062,63.066284   C661.659851,77.060860 683.392456,93.892944 703.318420,112.936707   C718.613159,127.554283 733.212158,142.821030 746.284363,159.579987   C760.582214,177.910278 773.652039,197.022278 784.650452,217.433029   C799.111450,244.269531 811.462524,272.105988 819.210144,301.701691   C823.319397,317.399170 826.864685,333.275299 829.866943,349.220947   C831.951294,360.291473 832.641418,371.622406 834.081848,382.820618   C834.184143,383.616180 835.336121,384.276703 836.000000,385.000000   C836.000000,396.020905 836.000000,407.041779 836.000000,418.531342  z"
   id="path2" />



<path
   fill="#FF5A00"
   opacity="1.000000"
   stroke="none"
   d=" M319.697449,242.710312   C335.350403,234.339218 351.695221,228.892044 368.602264,225.262207   C385.834625,221.562546 403.455200,220.846329 420.902344,222.212631   C445.978302,224.176346 469.847260,231.281799 492.180542,243.053848   C513.237793,254.153305 531.084167,269.348969 547.172424,286.726501   C547.922668,287.536804 548.410828,288.589752 549.798096,290.726624   C549.798096,283.818024 549.798096,278.172668 549.798096,272.270294   C571.685303,272.270294 592.952393,272.270294 614.609863,272.270294   C614.609863,369.237640 614.609863,466.285309 614.609863,563.666748   C593.342896,563.666748 571.955444,563.666748 550.203369,563.666748   C550.203369,558.367188 550.203369,553.096313 550.203369,546.433899   C547.790833,548.785706 546.077454,550.189819 544.680481,551.858765   C529.261963,570.279663 510.098236,584.016785 488.967712,594.844849   C472.288635,603.391785 454.566925,609.552124 435.804657,611.980530   C426.707001,613.158020 417.549744,614.929138 408.448883,614.768372   C396.335236,614.554260 384.186890,613.167297 372.168030,611.471863   C355.142334,609.070190 338.868347,603.535522 323.709534,595.648621   C311.903137,589.505798 300.791840,581.884094 289.907410,574.164246   C283.087677,569.327271 276.852631,563.480042 271.062958,557.411011   C252.700241,538.162415 237.968048,516.358643 229.173401,491.178467   C224.105484,476.668427 220.311798,461.609009 217.283279,446.527985   C215.288773,436.596008 214.903549,426.167023 215.142151,415.992157   C215.939453,381.995422 223.899826,349.675262 240.652634,319.940247   C257.907837,289.313568 281.642181,264.783203 312.115662,246.982880   C314.511749,245.583267 316.962524,244.277344 319.697449,242.710312  M387.000183,444.514587   C387.000183,449.846954 387.333435,455.205017 386.924683,460.505859   C386.256165,469.176056 387.200165,476.976227 394.007294,483.463593   C399.638794,488.830597 403.149872,497.689758 413.918762,493.179626   C413.918762,487.556946 413.918762,481.608246 413.918762,475.447571   C415.403046,475.126678 416.606049,474.866608 417.682953,474.633759   C418.600891,471.099182 418.225525,468.554962 414.285248,468.541321   C414.285248,465.212616 414.285248,462.273529 414.285248,459.248230   C416.623718,459.045410 418.689819,458.866211 421.000000,458.665833   C421.000000,451.517853 421.138794,444.701965 420.939850,437.895935   C420.844269,434.624420 421.657745,432.719208 424.785919,430.903259   C436.622406,424.031982 442.400146,413.143158 442.899353,399.721893   C443.304230,388.837219 438.746674,379.806549 430.829346,372.296509   C412.735107,355.133026 386.848145,359.886841 374.245850,378.878967   C363.342743,395.310333 366.093994,414.062531 380.761169,426.648254   C386.523560,431.592896 387.378510,436.268951 387.002747,442.521698   C386.982788,442.853790 387.000183,443.188080 387.000183,444.514587  z"
   id="path6" />

<path
   fill="#FF5900"
   opacity="1.000000"
   stroke="none"
   d=" M404.333679,392.286957   C407.076721,393.656830 410.327759,394.749390 411.607819,396.975372   C412.536835,398.590973 411.635406,402.601044 410.129730,403.912079   C408.497162,405.333527 405.142853,405.419159 402.675140,405.084930   C399.229431,404.618286 398.837646,401.696167 398.956238,398.632599   C399.089508,395.188965 400.619110,393.147583 404.333679,392.286957  z"
   id="path8" />
</svg>
