<?xml version="1.0" encoding="utf-8"?>
<!-- Generator: Adobe Illustrator 28.0.0, SVG Export Plug-In . SVG Version: 6.00 Build 0)  -->
<svg version="1.1" id="Capa_1" xmlns="http://www.w3.org/2000/svg" xmlns:xlink="http://www.w3.org/1999/xlink" x="0px" y="0px"
	 viewBox="0 0 44 44" style="enable-background:new 0 0 44 44;" xml:space="preserve">
<style type="text/css">
	.st0{fill:#FFFFFF;}
</style>
<g id="yEzxkb.tif">
	<g>
		<path class="st0" d="M21.3,44c-0.4-0.1-0.8-0.1-1.2-0.1c-3.1-0.3-6-1.1-8.7-2.7c-5.7-3.2-9.3-8-10.8-14.3
			c-0.5-2.2-0.7-4.5-0.5-6.8C0.9,12.3,4.7,6.6,11.5,2.7c2.4-1.4,4.9-2.2,7.6-2.5c6.8-0.8,12.8,1.1,17.8,5.7c3.6,3.2,5.7,7.3,6.7,12
			c0.3,1.3,0.4,2.6,0.4,3.8c0,0.2-0.1,0.3-0.3,0.3c-0.9,0-1.8,0-2.8,0c-0.2,0-0.3-0.1-0.3-0.3c-0.2-6.6-3.1-11.7-8.6-15.4
			c-2.4-1.6-5-2.5-7.8-2.8C14.8,2.3,6,8.4,3.8,17.7c-1.8,7.6,1.4,15.7,8.1,20c2.3,1.5,4.9,2.4,7.6,2.8c0.7,0.1,1.5,0.2,2.2,0.2
			c0.2,0,0.3,0,0.3,0.3c0,1,0,2,0,3C21.8,44,21.5,44,21.3,44z"/>
		<path class="st0" d="M29,28.6c-0.4,0.5-0.9,1-1.4,1.4c-1.6,1.3-3.5,2.1-5.5,2.2c-4.8,0.3-9-2.9-10.3-7.5
			c-1.2-4.2,0.4-8.7,3.9-11.3c1.9-1.3,4-2,6.2-1.8c2.8,0.2,5.1,1.4,6.9,3.4c0,0,0.1,0.1,0.1,0.1c0,0,0,0,0.1,0c0.1-0.2,0-0.5,0-0.7
			c0-0.2,0-0.3,0.2-0.3c0.9,0,1.9,0,2.8,0c0.2,0,0.3,0,0.3,0.3c0,1.4,0,2.8,0,4.2c0,3.5,0,7,0,10.5c0,0.3-0.1,0.3-0.3,0.3
			c-0.9,0-1.8,0-2.7,0c-0.2,0-0.3-0.1-0.2-0.3C29,29.1,29,28.9,29,28.6C29,28.7,29,28.7,29,28.6z M20.3,23.8c0,0.3,0,0.6,0,0.9
			c0,0.1,0,0.2,0.1,0.3c0.2,0.3,0.5,0.6,0.7,0.8c0.1,0.1,0.6,0.2,0.7,0.1c0.1,0,0-0.1,0-0.2c0-0.2,0-0.4,0-0.6c0-0.1,0-0.1,0.1-0.2
			c0.2-0.1,0.1-0.3,0-0.4c-0.1-0.1-0.1-0.3-0.1-0.4c0-0.1,0.1-0.1,0.2-0.1c0.2,0,0.1-0.1,0.1-0.2c0-0.3,0-0.6,0-0.9
			c0-0.2,0.1-0.2,0.2-0.3c0.6-0.4,1-1,1-1.7c0-0.9-0.6-1.7-1.4-1.9c-0.9-0.3-1.8,0.1-2.3,0.9c-0.5,0.8-0.4,1.8,0.2,2.4
			c0.4,0.4,0.5,0.8,0.4,1.2C20.3,23.7,20.3,23.8,20.3,23.8z"/>
		<path class="st0" d="M21.3,21.3c-0.2,0-0.3-0.1-0.3-0.3c0-0.2,0.1-0.3,0.3-0.3c0.2,0,0.3,0.1,0.3,0.3
			C21.6,21.2,21.5,21.3,21.3,21.3z"/>
	</g>
</g>
</svg>
